{
  "accessors": [
    {
      "bufferView": 2,
      "componentType": 5126,
      "count": 1210,
      "max": [
        0.1155766025185585,
        0.15562540292739868,
        0.6974136829376221
      ],
      "min": [
        -0.0165287796407938,
        -0.2537879943847656,
        0.18979430198669434
      ],
      "type": "VEC3"
    },
    {
      "bufferView": 2,
      "byteOffset": 14520,
      "componentType": 5126,
      "count": 1210,
      "max": [
        0.9974406361579895,
        0.9878818988800049,
        0.9915482401847839
      ],
      "min": [
        -0.999894380569458,
        -0.9980488419532776,
        -0.9983238577842712
      ],
      "type": "VEC3"
    },
    {
      "bufferView": 1,
      "componentType": 5126,
      "count": 1210,
      "max": [
        0.744140625,
        0.728515625
      ],
      "min": [
        0.20898430049419403,
        0.3547362983226776
      ],
      "type": "VEC2"
    },
    {
      "bufferView": 0,
      "componentType": 5125,
      "count": 4575,
      "type": "SCALAR"
    },
    {
      "bufferView": 2,
      "byteOffset": 29040,
      "componentType": 5126,
      "count": 24607,
      "max": [
        0.1269657015800476,
        0.4812855124473572,
        0.6974136829376221
      ],
      "min": [
        -0.0891910120844841,
        -0.4661449193954468,
        0.007017253898084164
      ],
      "type": "VEC3"
    },
    {
      "bufferView": 2,
      "byteOffset": 324324,
      "componentType": 5126,
      "count": 24607,
      "max": [
        0.9999821186065674,
        0.9999597072601318,
        0.9999971389770508
      ],
      "min": [
        -0.9999998807907104,
        -0.9999829530715942,
        -0.9999936819076538
      ],
      "type": "VEC3"
    },
    {
      "bufferView": 1,
      "byteOffset": 9680,
      "componentType": 5126,
      "count": 24607,
      "max": [
        1.0,
        1.0
      ],
      "min": [
        9.697680070530623e-05,
        9.697680070530623e-05
      ],
      "type": "VEC2"
    },
    {
      "bufferView": 0,
      "byteOffset": 18300,
      "componentType": 5125,
      "count": 143715,
      "type": "SCALAR"
    },
    {
      "bufferView": 2,
      "byteOffset": 619608,
      "componentType": 5126,
      "count": 2607,
      "max": [
        0.08550280332565308,
        0.027120940387248993,
        0.6556587219238281
      ],
      "min": [
        0.08250612020492554,
        0.02074253000319004,
        0.6391280889511108
      ],
      "type": "VEC3"
    },
    {
      "bufferView": 2,
      "byteOffset": 650892,
      "componentType": 5126,
      "count": 2607,
      "max": [
        0.9998785257339478,
        0.9846972823143005,
        0.9831988215446472
      ],
      "min": [
        -0.9999877214431763,
        -0.9994300603866577,
        -0.9995607137680054
      ],
      "type": "VEC3"
    },
    {
      "bufferView": 1,
      "byteOffset": 206536,
      "componentType": 5126,
      "count": 2607,
      "max": [
        1.0,
        1.0
      ],
      "min": [
        0.0,
        0.0
      ],
      "type": "VEC2"
    },
    {
      "bufferView": 0,
      "byteOffset": 593160,
      "componentType": 5125,
      "count": 5760,
      "type": "SCALAR"
    },
    {
      "bufferView": 2,
      "byteOffset": 682176,
      "componentType": 5126,
      "count": 702,
      "max": [
        0.11405370384454727,
        0.05541722849011421,
        0.5079607963562012
      ],
      "min": [
        0.0992155596613884,
        0.01576285995543003,
        0.4670889973640442
      ],
      "type": "VEC3"
    },
    {
      "bufferView": 2,
      "byteOffset": 690600,
      "componentType": 5126,
      "count": 702,
      "max": [
        0.9959210753440857,
        0.9998569488525391,
        0.9994874000549316
      ],
      "min": [
        -0.9999419450759888,
        -0.9996261596679688,
        -0.9994890689849854
      ],
      "type": "VEC3"
    },
    {
      "bufferView": 1,
      "byteOffset": 227392,
      "componentType": 5126,
      "count": 702,
      "max": [
        1.0,
        1.0
      ],
      "min": [
        0.0,
        0.0
      ],
      "type": "VEC2"
    },
    {
      "bufferView": 0,
      "byteOffset": 616200,
      "componentType": 5125,
      "count": 2148,
      "type": "SCALAR"
    },
    {
      "bufferView": 2,
      "byteOffset": 699024,
      "componentType": 5126,
      "count": 452,
      "max": [
        0.11405370384454727,
        0.05541722849011421,
        0.506585419178009
      ],
      "min": [
        0.10090769827365875,
        0.018309110775589943,
        0.4688456952571869
      ],
      "type": "VEC3"
    },
    {
      "bufferView": 2,
      "byteOffset": 704448,
      "componentType": 5126,
      "count": 452,
      "max": [
        0.9997599124908447,
        0.9993191957473755,
        0.867510974407196
      ],
      "min": [
        -0.9981871843338013,
        -0.9993767738342285,
        -0.8654322624206543
      ],
      "type": "VEC3"
    },
    {
      "bufferView": 1,
      "byteOffset": 233008,
      "componentType": 5126,
      "count": 452,
      "max": [
        1.0,
        1.0
      ],
      "min": [
        0.0,
        0.0
      ],
      "type": "VEC2"
    },
    {
      "bufferView": 0,
      "byteOffset": 624792,
      "componentType": 5125,
      "count": 1830,
      "type": "SCALAR"
    }
  ],
  "asset": {
    "extras": {
      "author": "Shavin vfx (https://sketchfab.com/shavinvfx)",
      "license": "CC-BY-4.0 (http://creativecommons.org/licenses/by/4.0/)",
      "source": "https://sketchfab.com/3d-models/ghostfreak-ben-10-0151df455f1b4b80804c14e625a73f49",
      "title": "ghostfreak ben 10"
    },
    "generator": "Sketchfab-12.67.0",
    "version": "2.0"
  },
  "bufferViews": [
    {
      "buffer": 0,
      "byteLength": 632112,
      "name": "floatBufferViews",
      "target": 34963
    },
    {
      "buffer": 0,
      "byteLength": 236624,
      "byteOffset": 632112,
      "byteStride": 8,
      "name": "floatBufferViews",
      "target": 34962
    },
    {
      "buffer": 0,
      "byteLength": 709872,
      "byteOffset": 868736,
      "byteStride": 12,
      "name": "floatBufferViews",
      "target": 34962
    }
  ],
  "buffers": [
    {
      "byteLength": 1578608,
      "uri": "scene.bin"
    }
  ],
  "materials": [
    {
      "doubleSided": true,
      "name": "Metal_2.004",
      "pbrMetallicRoughness": {
        "baseColorFactor": [
          0.0,
          0.0,
          0.0,
          1.0
        ],
        "metallicFactor": 0.0
      }
    },
    {
      "doubleSided": true,
      "name": "Body_1.003",
      "pbrMetallicRoughness": {
        "baseColorFactor": [
          0.0699782,
          0.0699782,
          0.0699782,
          1.0
        ],
        "roughnessFactor": 0.44963777090864254
      }
    },
    {
      "doubleSided": true,
      "name": "Eye.003",
      "pbrMetallicRoughness": {
        "baseColorFactor": [
          0.6269467347204363,
          0.0,
          0.9505039999999997,
          1.0
        ],
        "roughnessFactor": 0.406457590267174
      }
    },
    {
      "doubleSided": true,
      "name": "Black.004",
      "pbrMetallicRoughness": {
        "baseColorFactor": [
          0.0,
          1.0,
          0.002142809999999983,
          1.0
        ],
        "roughnessFactor": 0.0
      }
    },
    {
      "doubleSided": true,
      "name": "Back.001",
      "pbrMetallicRoughness": {
        "baseColorFactor": [
          0.0800118,
          0.0800118,
          0.0800118,
          1.0
        ],
        "metallicFactor": 0.0,
        "roughnessFactor": 0.9758153015707025
      }
    }
  ],
  "meshes": [
    {
      "name": "Body_Metal_2.004_0",
      "primitives": [
        {
          "attributes": {
            "NORMAL": 1,
            "POSITION": 0,
            "TEXCOORD_0": 2
          },
          "indices": 3,
          "material": 0,
          "mode": 4
        }
      ]
    },
    {
      "name": "Body_Body_1.003_0",
      "primitives": [
        {
          "attributes": {
            "NORMAL": 5,
            "POSITION": 4,
            "TEXCOORD_0": 6
          },
          "indices": 7,
          "material": 1,
          "mode": 4
        }
      ]
    },
    {
      "name": "Body_Eye.003_0",
      "primitives": [
        {
          "attributes": {
            "NORMAL": 9,
            "POSITION": 8,
            "TEXCOORD_0": 10
          },
          "indices": 11,
          "material": 2,
          "mode": 4
        }
      ]
    },
    {
      "name": "Body_Black.004_0",
      "primitives": [
        {
          "attributes": {
            "NORMAL": 13,
            "POSITION": 12,
            "TEXCOORD_0": 14
          },
          "indices": 15,
          "material": 3,
          "mode": 4
        }
      ]
    },
    {
      "name": "Body_Back.001_0",
      "primitives": [
        {
          "attributes": {
            "NORMAL": 17,
            "POSITION": 16,
            "TEXCOORD_0": 18
          },
          "indices": 19,
          "material": 4,
          "mode": 4
        }
      ]
    }
  ],
  "nodes": [
    {
      "children": [
        1
      ],
      "matrix": [
        1.0,
        0.0,
        0.0,
        0.0,
        0.0,
        2.220446049250313e-16,
        -1.0,
        0.0,
        0.0,
        1.0,
        2.220446049250313e-16,
        0.0,
        0.0,
        0.0,
        0.0,
        1.0
      ],
      "name": "Sketchfab_model"
    },
    {
      "children": [
        2
      ],
      "matrix": [
        0.009999999776482582,
        0.0,
        0.0,
        0.0,
        0.0,
        0.0,
        0.009999999776482582,
        0.0,
        0.0,
        -0.009999999776482582,
        0.0,
        0.0,
        0.0,
        0.0,
        0.0,
        1.0
      ],
      "name": "f97d8e8b058246d6b39ee20e7e0cf1ef.fbx"
    },
    {
      "children": [
        3
      ],
      "name": "RootNode"
    },
    {
      "children": [
        4,
        5,
        6,
        7,
        8
      ],
      "matrix": [
        -9944.906428199953,
        1.1796120788607097e-12,
        -1048.26316619358,
        0.0,
        -1048.263166193577,
        0.0007549790719359517,
        9944.906428199925,
        0.0,
        7.914166100242426e-05,
        9999.99999999997,
        -0.0007508194754812791,
        0.0,
        1.1097599781351164e-05,
        -5.640250037686201e-06,
        1.9504399460856803e-05,
        1.0
      ],
      "name": "Body"
    },
    {
      "mesh": 0,
      "name": "Body_Metal_2.004_0"
    },
    {
      "mesh": 1,
      "name": "Body_Body_1.003_0"
    },
    {
      "mesh": 2,
      "name": "Body_Eye.003_0"
    },
    {
      "mesh": 3,
      "name": "Body_Black.004_0"
    },
    {
      "mesh": 4,
      "name": "Body_Back.001_0"
    }
  ],
  "scene": 0,
  "scenes": [
    {
      "name": "Sketchfab_Scene",
      "nodes": [
        0
      ]
    }
  ]
}
