{
  "accessors": [
    {
      "bufferView": 3,
      "componentType": 5126,
      "count": 2376,
      "max": [
        1.1630347967147827,
        1.6776485443115234,
        0.40089452266693115
      ],
      "min": [
        -1.2761560678482056,
        -0.002737815957516432,
        -0.714242160320282
      ],
      "type": "VEC3"
    },
    {
      "bufferView": 3,
      "byteOffset": 28512,
      "componentType": 5126,
      "count": 2376,
      "max": [
        0.9991045594215393,
        0.9969242811203003,
        0.9999893307685852
      ],
      "min": [
        -0.9994975924491882,
        -0.9996055960655212,
        -0.9902878999710083
      ],
      "type": "VEC3"
    },
    {
      "bufferView": 2,
      "componentType": 5126,
      "count": 2376,
      "max": [
        1.0515799522399902,
        -0.018734000623226166
      ],
      "min": [
        0.007941000163555145,
        -1.0651580095291138
      ],
      "type": "VEC2"
    },
    {
      "bufferView": 1,
      "componentType": 5125,
      "count": 5130,
      "type": "SCALAR"
    },
    {
      "bufferView": 3,
      "byteOffset": 57024,
      "componentType": 5126,
      "count": 3482,
      "max": [
        1.1405158042907715,
        1.715874195098877,
        1.0551941394805908
      ],
      "min": [
        -1.2541080713272095,
        -0.012955812737345695,
        -0.8511914014816284
      ],
      "type": "VEC3"
    },
    {
      "bufferView": 3,
      "byteOffset": 98808,
      "componentType": 5126,
      "count": 3482,
      "max": [
        0.9992509484291077,
        0.9999791979789734,
        0.999916136264801
      ],
      "min": [
        -0.999724268913269,
        -0.9997153282165527,
        -0.9730927348136902
      ],
      "type": "VEC3"
    },
    {
      "bufferView": 2,
      "byteOffset": 19008,
      "componentType": 5126,
      "count": 3482,
      "max": [
        1.4984999895095825,
        -0.0011419999646022916
      ],
      "min": [
        0.03128200024366379,
        -1.268630027770996
      ],
      "type": "VEC2"
    },
    {
      "bufferView": 1,
      "byteOffset": 20520,
      "componentType": 5125,
      "count": 7944,
      "type": "SCALAR"
    },
    {
      "bufferView": 5,
      "componentType": 5126,
      "count": 34,
      "max": [
        1.1385633945465088,
        1.269993782043457,
        1.2398278713226318,
        0.0,
        1.0475354194641113,
        1.2926398515701294,
        1.2842835187911987,
        0.0,
        1.2800270318984985,
        0.5383883118629456,
        1.0,
        0.0,
        0.6039960384368896,
        1.3241972923278809,
        1.8530107736587524,
        1.0
      ],
      "min": [
        -1.2926397323608398,
        -1.2693570852279663,
        -1.233256220817566,
        0.0,
        -1.0420230627059937,
        -1.279180645942688,
        -1.2576005458831787,
        0.0,
        -1.2795259952545166,
        -1.1255563497543335,
        -1.2926398515701294,
        0.0,
        -0.6667753458023071,
        -2.0959720611572266,
        -1.064029335975647,
        1.0
      ],
      "type": "MAT4"
    },
    {
      "bufferView": 0,
      "componentType": 5123,
      "count": 2376,
      "type": "VEC4"
    },
    {
      "bufferView": 4,
      "componentType": 5126,
      "count": 2376,
      "max": [
        1.0,
        0.4985877573490143,
        0.3064844608306885,
        0.15220096707344055
      ],
      "min": [
        0.3142099678516388,
        0.0,
        0.0,
        0.0
      ],
      "type": "VEC4"
    },
    {
      "bufferView": 0,
      "byteOffset": 19008,
      "componentType": 5123,
      "count": 3482,
      "type": "VEC4"
    },
    {
      "bufferView": 4,
      "byteOffset": 38016,
      "componentType": 5126,
      "count": 3482,
      "max": [
        1.0,
        0.4999518096446991,
        0.3084592819213867,
        0.10507805645465851
      ],
      "min": [
        0.3686904311180115,
        0.0,
        0.0,
        0.0
      ],
      "type": "VEC4"
    }
  ],
  "asset": {
    "extras": {
      "author": "DHedge (https://sketchfab.com/Hedgehun55)",
      "license": "CC-BY-4.0 (http://creativecommons.org/licenses/by/4.0/)",
      "source": "https://sketchfab.com/3d-models/armodrillo-b41e94b55a90466086dbee50a54c9c6b",
      "title": "ArmoDrillo"
    },
    "generator": "Sketchfab-12.68.0",
    "version": "2.0"
  },
  "bufferViews": [
    {
      "buffer": 0,
      "byteLength": 46864,
      "byteStride": 8,
      "name": "shortBufferViews",
      "target": 34962
    },
    {
      "buffer": 0,
      "byteLength": 52296,
      "byteOffset": 46864,
      "name": "floatBufferViews",
      "target": 34963
    },
    {
      "buffer": 0,
      "byteLength": 46864,
      "byteOffset": 99160,
      "byteStride": 8,
      "name": "floatBufferViews",
      "target": 34962
    },
    {
      "buffer": 0,
      "byteLength": 140592,
      "byteOffset": 146024,
      "byteStride": 12,
      "name": "floatBufferViews",
      "target": 34962
    },
    {
      "buffer": 0,
      "byteLength": 93728,
      "byteOffset": 286616,
      "byteStride": 16,
      "name": "floatBufferViews",
      "target": 34962
    },
    {
      "buffer": 0,
      "byteLength": 2176,
      "byteOffset": 380344,
      "name": "floatBufferViews"
    }
  ],
  "buffers": [
    {
      "byteLength": 382520,
      "uri": "scene.bin"
    }
  ],
  "images": [
    {
      "uri": "textures/Material.001_baseColor.png"
    },
    {
      "uri": "textures/Material.003_baseColor.png"
    }
  ],
  "materials": [
    {
      "doubleSided": true,
      "name": "Material.001",
      "pbrMetallicRoughness": {
        "baseColorTexture": {
          "index": 0
        },
        "metallicFactor": 0.0,
        "roughnessFactor": 0.5
      }
    },
    {
      "doubleSided": true,
      "name": "Material.003",
      "pbrMetallicRoughness": {
        "baseColorTexture": {
          "index": 1
        },
        "metallicFactor": 0.0,
        "roughnessFactor": 0.5
      }
    }
  ],
  "meshes": [
    {
      "name": "Object_0",
      "primitives": [
        {
          "attributes": {
            "JOINTS_0": 9,
            "NORMAL": 1,
            "POSITION": 0,
            "TEXCOORD_0": 2,
            "WEIGHTS_0": 10
          },
          "indices": 3,
          "material": 0,
          "mode": 4
        }
      ]
    },
    {
      "name": "Object_1",
      "primitives": [
        {
          "attributes": {
            "JOINTS_0": 11,
            "NORMAL": 5,
            "POSITION": 4,
            "TEXCOORD_0": 6,
            "WEIGHTS_0": 12
          },
          "indices": 7,
          "material": 1,
          "mode": 4
        }
      ]
    }
  ],
  "nodes": [
    {
      "children": [
        1
      ],
      "matrix": [
        1.0,
        0.0,
        0.0,
        0.0,
        0.0,
        2.220446049250313e-16,
        -1.0,
        0.0,
        0.0,
        1.0,
        2.220446049250313e-16,
        0.0,
        0.0,
        0.0,
        0.0,
        1.0
      ],
      "name": "Sketchfab_model"
    },
    {
      "children": [
        2
      ],
      "name": "root"
    },
    {
      "children": [
        3
      ],
      "matrix": [
        1.0,
        0.0,
        0.0,
        0.0,
        0.0,
        2.220446049250313e-16,
        1.0,
        0.0,
        0.0,
        -1.0,
        2.220446049250313e-16,
        0.0,
        0.0,
        0.0,
        0.0,
        1.0
      ],
      "name": "GLTF_SceneRootNode"
    },
    {
      "children": [
        4
      ],
      "matrix": [
        0.7736107707023621,
        0.0,
        0.0,
        0.0,
        0.0,
        -1.3042102607087153e-07,
        0.7736107707023511,
        0.0,
        0.0,
        -0.7736107707023511,
        -1.3042102607087153e-07,
        0.0,
        0.0,
        0.0,
        0.0,
        1.0
      ],
      "name": "Armature_35"
    },
    {
      "children": [
        5,
        7,
        9,
        6,
        8
      ],
      "name": "GLTF_created_0"
    },
    {
      "children": [
        10
      ],
      "name": "GLTF_created_0_rootJoint"
    },
    {
      "name": "Mesh_0152_Mesh_0152Mesh_33"
    },
    {
      "mesh": 0,
      "name": "Object_7",
      "skin": 0
    },
    {
      "name": "Mesh_0153_Mesh_0153Mesh_34"
    },
    {
      "mesh": 1,
      "name": "Object_9",
      "skin": 0
    },
    {
      "children": [
        11,
        33,
        38
      ],
      "name": "mixamorig:Hips_32",
      "rotation": [
        8.429370268459024e-08,
        -0.7071068286895752,
        0.7071068286895752,
        -2.2476468686249973e-08
      ],
      "translation": [
        -0.06988072395324707,
        0.01969549059867859,
        -0.86543869972229
      ]
    },
    {
      "children": [
        12
      ],
      "name": "mixamorig:Spine_21",
      "rotation": [
        0.0712764710187912,
        3.170566742483061e-08,
        -8.496817471836948e-09,
        0.9974566102027893
      ],
      "scale": [
        1.0,
        0.9999999403953552,
        0.9999999403953552
      ],
      "translation": [
        1.4386303259783517e-09,
        0.20343303680419922,
        0.02922309935092926
      ]
    },
    {
      "children": [
        13
      ],
      "name": "mixamorig:Spine1_20",
      "rotation": [
        -6.705522537231445e-08,
        9.714461457477341e-10,
        1.359453882798789e-08,
        1.0
      ],
      "scale": [
        1.0,
        1.0000001192092896,
        1.0000001192092896
      ],
      "translation": [
        -1.9912915760755823e-08,
        0.2397744059562683,
        -2.1010329476212064e-08
      ]
    },
    {
      "children": [
        14,
        17,
        25
      ],
      "name": "mixamorig:Spine2_19",
      "rotation": [
        5.21540641784668e-08,
        -9.714347104505805e-10,
        -1.3594533498917372e-08,
        1.0
      ],
      "translation": [
        -2.156642509021367e-08,
        0.2740285396575928,
        -1.3423976596982357e-08
      ]
    },
    {
      "children": [
        15
      ],
      "name": "mixamorig:Neck_2",
      "rotation": [
        -0.07127644121646881,
        -5.133961560998407e-15,
        6.2311849013951814e-09,
        0.9974566102027893
      ],
      "scale": [
        1.0,
        0.9999998807907104,
        0.9999998807907104
      ],
      "translation": [
        2.438831137041575e-09,
        0.3082815706729889,
        2.57423984351135e-08
      ]
    },
    {
      "children": [
        16
      ],
      "name": "mixamorig:Head_1",
      "rotation": [
        -6.7633250111498455e-09,
        3.552713678800501e-15,
        3.5527141023169746e-15,
        1.0
      ],
      "translation": [
        1.0710296649563134e-08,
        0.11015677452087402,
        -0.003908595535904169
      ]
    },
    {
      "name": "mixamorig:HeadTop_End_0",
      "rotation": [
        -1.1272259792249884e-09,
        4.361948394143051e-24,
        2.8808371924012597e-15,
        1.0
      ],
      "translation": [
        2.9395599288051244e-09,
        0.10321152210235596,
        -0.003662155708298087
      ]
    },
    {
      "children": [
        18
      ],
      "name": "mixamorig:LeftShoulder_10",
      "rotation": [
        0.5408743619918823,
        0.4523017108440399,
        -0.5493105053901672,
        0.44848209619522095
      ],
      "scale": [
        1.0,
        1.000000238418579,
        1.0
      ],
      "translation": [
        0.2939390540122986,
        0.2430032640695572,
        -0.004549795296043158
      ]
    },
    {
      "children": [
        19
      ],
      "name": "mixamorig:LeftArm_9",
      "rotation": [
        0.5177838206291199,
        0.12465837597846985,
        -0.07657527923583984,
        0.8429095149040222
      ],
      "scale": [
        0.9999997615814209,
        0.9999997019767761,
        0.9999996423721313
      ],
      "translation": [
        6.147612197082708e-08,
        0.7169326543807983,
        8.182914967846955e-08
      ]
    },
    {
      "children": [
        20
      ],
      "name": "mixamorig:LeftForeArm_8",
      "rotation": [
        -0.030080415308475494,
        -0.045767560601234436,
        0.5484106540679932,
        0.8344137072563171
      ],
      "scale": [
        1.000000238418579,
        0.9999999403953552,
        1.000000238418579
      ],
      "translation": [
        -6.613733205540484e-08,
        0.5807817578315735,
        -3.149154892412298e-08
      ]
    },
    {
      "children": [
        21
      ],
      "name": "mixamorig:LeftHand_7",
      "rotation": [
        -0.02765159122645855,
        0.0018921536393463612,
        -0.06820736825466156,
        0.9972860813140869
      ],
      "scale": [
        1.0000001192092896,
        1.0,
        0.9999999403953552
      ],
      "translation": [
        -9.903124009724706e-08,
        0.9143524765968323,
        -2.2171093405631837e-07
      ]
    },
    {
      "children": [
        22
      ],
      "name": "mixamorig:LeftHandIndex1_6",
      "rotation": [
        -0.08057200163602829,
        -0.008463905192911625,
        0.10408713668584824,
        0.9912630319595337
      ],
      "scale": [
        1.0,
        0.9999999403953552,
        1.0000003576278687
      ],
      "translation": [
        -4.200373382445832e-08,
        0.33302122354507446,
        1.00285454607274e-07
      ]
    },
    {
      "children": [
        23
      ],
      "name": "mixamorig:LeftHandIndex2_5",
      "rotation": [
        6.668270202681015e-07,
        2.5723129510879517e-06,
        1.3485550880432129e-06,
        1.0
      ],
      "scale": [
        0.9999998807907104,
        0.9999999403953552,
        0.9999997615814209
      ],
      "translation": [
        5.960464477539063e-08,
        0.07023739814758301,
        -5.960480109479249e-08
      ]
    },
    {
      "children": [
        24
      ],
      "name": "mixamorig:LeftHandIndex3_4",
      "rotation": [
        3.166496753692627e-07,
        2.0675361156463623e-07,
        -3.203749656677246e-07,
        1.0
      ],
      "scale": [
        1.000000238418579,
        1.0,
        1.0000001192092896
      ],
      "translation": [
        0.03979862481355667,
        0.05462825298309326,
        0.05292513221502304
      ]
    },
    {
      "name": "mixamorig:LeftHandIndex4_3",
      "rotation": [
        -6.705522537231445e-08,
        -1.4901161193847656e-07,
        4.470348713425665e-08,
        1.0
      ],
      "scale": [
        0.9999998211860657,
        0.9999999403953552,
        1.0
      ],
      "translation": [
        0.0468076691031456,
        0.032986223697662354,
        0.06691937148571014
      ]
    },
    {
      "children": [
        26
      ],
      "name": "mixamorig:RightShoulder_18",
      "rotation": [
        0.5458309650421143,
        -0.4499065577983856,
        0.5433424115180969,
        0.4521411657333374
      ],
      "scale": [
        0.9999999403953552,
        0.9999997615814209,
        1.0
      ],
      "translation": [
        -0.2939390540122986,
        0.24384990334510803,
        0.0013431580737233162
      ]
    },
    {
      "children": [
        27
      ],
      "name": "mixamorig:RightArm_17",
      "rotation": [
        0.5138669610023499,
        -0.013437553308904171,
        0.00805073231458664,
        0.8577268719673157
      ],
      "scale": [
        1.0,
        0.9999998807907104,
        0.9999999403953552
      ],
      "translation": [
        -1.3106507879001583e-08,
        0.7165738344192505,
        -1.7151312192709156e-07
      ]
    },
    {
      "children": [
        28
      ],
      "name": "mixamorig:RightForeArm_16",
      "rotation": [
        0.001303903409279883,
        -0.0026798229664564133,
        -0.4375251829624176,
        0.8992012143135071
      ],
      "scale": [
        0.9999997615814209,
        1.000000238418579,
        1.0
      ],
      "translation": [
        1.561169504782356e-08,
        0.5425385236740112,
        -1.1035960056915428e-07
      ]
    },
    {
      "children": [
        29
      ],
      "name": "mixamorig:RightHand_15",
      "rotation": [
        0.1159820407629013,
        -0.01684265397489071,
        -0.14271703362464905,
        0.9828002452850342
      ],
      "scale": [
        1.000000238418579,
        1.0,
        1.0
      ],
      "translation": [
        3.9355342096314416e-08,
        0.8957210183143616,
        -2.838290811268962e-07
      ]
    },
    {
      "children": [
        30
      ],
      "name": "mixamorig:RightHandIndex1_14",
      "rotation": [
        0.0029779253527522087,
        0.9692789316177368,
        -0.24566501379013062,
        0.011758370324969292
      ],
      "scale": [
        0.9999999403953552,
        0.9999997615814209,
        1.0
      ],
      "translation": [
        2.542912547198739e-09,
        0.386462539434433,
        -2.090957309519581e-07
      ]
    },
    {
      "children": [
        31
      ],
      "name": "mixamorig:RightHandIndex2_13",
      "rotation": [
        4.4144684352431796e-07,
        1.1269002015978913e-06,
        -7.767229703858902e-07,
        1.0
      ],
      "scale": [
        1.0,
        1.0,
        1.0000001192092896
      ],
      "translation": [
        -2.980206126323992e-08,
        0.06566741317510605,
        1.1175885816783193e-07
      ]
    },
    {
      "children": [
        32
      ],
      "name": "mixamorig:RightHandIndex3_12",
      "rotation": [
        -9.126962652317161e-08,
        -4.861503839492798e-07,
        5.699694156646729e-07,
        1.0
      ],
      "scale": [
        1.0,
        0.9999998807907104,
        0.9999999403953552
      ],
      "translation": [
        0.024963796138763428,
        0.059132352471351624,
        -0.059670865535736084
      ]
    },
    {
      "name": "mixamorig:RightHandIndex4_11",
      "rotation": [
        -1.8626447051417472e-09,
        -1.1175871783564162e-08,
        -8.326672022944184e-17,
        1.0
      ],
      "scale": [
        1.0,
        1.0000001192092896,
        1.0000001192092896
      ],
      "translation": [
        0.035021670162677765,
        0.03589273989200592,
        -0.07394853979349136
      ]
    },
    {
      "children": [
        34
      ],
      "name": "mixamorig:LeftUpLeg_26",
      "rotation": [
        -0.0027723880484700203,
        -0.009308450855314732,
        -0.9583516120910645,
        0.28542566299438477
      ],
      "scale": [
        0.9999996423721313,
        1.0000001192092896,
        1.0000001192092896
      ],
      "translation": [
        0.15095259249210358,
        -0.09946203976869583,
        0.006598421838134527
      ]
    },
    {
      "children": [
        35
      ],
      "name": "mixamorig:LeftLeg_25",
      "rotation": [
        -0.3115041255950928,
        -0.3768855035305023,
        -0.1362597942352295,
        0.8616007566452026
      ],
      "scale": [
        1.0,
        0.9999998211860657,
        0.9999998807907104
      ],
      "translation": [
        2.8888173631003156e-08,
        0.41907569766044617,
        2.4749198246354354e-08
      ]
    },
    {
      "children": [
        36
      ],
      "name": "mixamorig:LeftFoot_24",
      "rotation": [
        0.6175071597099304,
        0.1812237799167633,
        -0.14906050264835358,
        0.750748872756958
      ],
      "scale": [
        1.0000001192092896,
        1.0000001192092896,
        1.0000001192092896
      ],
      "translation": [
        -2.020626688192806e-08,
        0.3142928183078766,
        2.404977017533838e-08
      ]
    },
    {
      "children": [
        37
      ],
      "name": "mixamorig:LeftToeBase_23",
      "rotation": [
        0.26972445845603943,
        -0.06100063398480415,
        0.017123693600296974,
        0.9608508944511414
      ],
      "scale": [
        1.0000001192092896,
        0.9999999403953552,
        1.000000238418579
      ],
      "translation": [
        4.866593528163321e-08,
        0.24288441240787506,
        -5.392276847260291e-09
      ]
    },
    {
      "name": "mixamorig:LeftToe_End_22",
      "rotation": [
        -1.7695128917694092e-08,
        -8.47503613954359e-08,
        2.270098420353861e-08,
        1.0
      ],
      "scale": [
        1.0,
        1.0000001192092896,
        1.000000238418579
      ],
      "translation": [
        -4.933099262416363e-08,
        0.12734355032444,
        -5.079270337660091e-15
      ]
    },
    {
      "children": [
        39
      ],
      "name": "mixamorig:RightUpLeg_31",
      "rotation": [
        -0.03569012135267258,
        0.12323716282844543,
        0.9525917768478394,
        0.27587634325027466
      ],
      "scale": [
        0.9999998807907104,
        1.000000238418579,
        1.0
      ],
      "translation": [
        -0.15095265209674835,
        -0.09946200996637344,
        -0.009772196412086487
      ]
    },
    {
      "children": [
        40
      ],
      "name": "mixamorig:RightLeg_30",
      "rotation": [
        -0.291401743888855,
        0.40312081575393677,
        0.1371365785598755,
        0.856605052947998
      ],
      "scale": [
        1.0000001192092896,
        0.9999998211860657,
        1.0
      ],
      "translation": [
        -4.119637964095091e-08,
        0.42906367778778076,
        6.836056609671459e-09
      ]
    },
    {
      "children": [
        41
      ],
      "name": "mixamorig:RightFoot_29",
      "rotation": [
        0.4829416871070862,
        -0.1565132886171341,
        0.08819664269685745,
        0.8570252656936646
      ],
      "translation": [
        3.3856530023967935e-08,
        0.28955450654029846,
        5.50343681737786e-09
      ]
    },
    {
      "children": [
        42
      ],
      "name": "mixamorig:RightToeBase_28",
      "rotation": [
        0.3108671009540558,
        -0.012841572985053062,
        0.004200412426143885,
        0.9503573775291443
      ],
      "scale": [
        1.0,
        0.9999999403953552,
        1.0000001192092896
      ],
      "translation": [
        -9.894852581737723e-08,
        0.21429601311683655,
        -6.505639760234772e-08
      ]
    },
    {
      "name": "mixamorig:RightToe_End_27",
      "rotation": [
        -5.587935447692871e-09,
        1.6763806343078613e-08,
        7.945343938331462e-09,
        1.0
      ],
      "scale": [
        1.000000238418579,
        1.0,
        1.0
      ],
      "translation": [
        4.212779103340836e-08,
        0.10717380791902542,
        -3.317837560246062e-09
      ]
    }
  ],
  "samplers": [
    {
      "magFilter": 9729,
      "minFilter": 9987,
      "wrapS": 10497,
      "wrapT": 10497
    }
  ],
  "scene": 0,
  "scenes": [
    {
      "name": "Sketchfab_Scene",
      "nodes": [
        0
      ]
    }
  ],
  "skins": [
    {
      "inverseBindMatrices": 8,
      "joints": [
        5,
        10,
        11,
        12,
        13,
        14,
        15,
        16,
        17,
        18,
        19,
        20,
        21,
        22,
        23,
        24,
        25,
        26,
        27,
        28,
        29,
        30,
        31,
        32,
        33,
        34,
        35,
        36,
        37,
        38,
        39,
        40,
        41,
        42
      ],
      "skeleton": 5
    }
  ],
  "textures": [
    {
      "sampler": 0,
      "source": 0
    },
    {
      "sampler": 0,
      "source": 1
    }
  ]
}
